<?xml version="1.0" encoding="UTF-8"?>
<svg version="1.1" xmlns="http://www.w3.org/2000/svg" width="408" height="472">
<path d="M0 0 C0.95477429 -0.00382555 1.90954857 -0.00765109 2.89325541 -0.01159257 C6.07112121 -0.02185597 9.24880408 -0.0179431 12.42668152 -0.01396179 C14.71392991 -0.01831197 17.00117685 -0.02349614 19.28842163 -0.02944946 C25.48686031 -0.04281836 31.68523793 -0.04342042 37.88368821 -0.04088616 C43.06492307 -0.03981493 48.24614565 -0.04470378 53.42737788 -0.04949158 C66.35357489 -0.06121314 79.27973302 -0.06036588 92.20593169 -0.05393478 C103.41024434 -0.04876817 114.61446999 -0.06001672 125.81876544 -0.07903299 C137.34524609 -0.09844489 148.87167536 -0.10637056 160.39817351 -0.10290974 C166.86061147 -0.10109973 173.32296976 -0.10370492 179.78539467 -0.11762428 C185.86509667 -0.13022971 191.94462499 -0.12823271 198.02432442 -0.11521339 C200.24945892 -0.11285391 202.47460575 -0.11555964 204.6997261 -0.12383652 C225.23424268 -0.19468292 241.13226615 3.13398346 258.11491394 15.26069641 C258.11491394 15.92069641 258.11491394 16.58069641 258.11491394 17.26069641 C260.09491394 18.25069641 260.09491394 18.25069641 262.11491394 19.26069641 C262.11491394 19.92069641 262.11491394 20.58069641 262.11491394 21.26069641 C264.09491394 22.25069641 264.09491394 22.25069641 266.11491394 23.26069641 C266.11491394 24.25069641 266.11491394 25.24069641 266.11491394 26.26069641 C268.09491394 27.25069641 268.09491394 27.25069641 270.11491394 28.26069641 C270.11491394 29.58069641 270.11491394 30.90069641 270.11491394 32.26069641 C270.71303894 32.44632141 271.31116394 32.63194641 271.92741394 32.82319641 C277.13054873 36.24239927 278.02569616 44.31722409 279.46647644 50.00288391 C279.90313484 52.2103988 279.90313484 52.2103988 281.11491394 53.26069641 C282.52185272 60.11812841 282.25878403 67.07049646 282.24772644 74.04194641 C282.24840128 75.38280759 282.2493728 76.72366865 282.25062561 78.06452942 C282.25209411 80.86511915 282.2499754 83.66567683 282.24528503 86.46626282 C282.23958826 90.0402761 282.24287182 93.61421426 282.2488575 97.18822479 C282.25248606 99.95416318 282.25131401 102.72008401 282.24872971 105.48602295 C282.24774649 107.43960113 282.25076186 109.39318001 282.25386047 111.34675598 C282.23871146 117.10493083 282.01993498 122.56412409 281.11491394 128.26069641 C281.05891332 130.75096892 281.05221819 133.24270145 281.08757019 135.73335266 C281.1002092 137.1415534 281.11257069 138.54975664 281.12467957 139.95796204 C281.14950308 142.145626 281.1775655 144.33315417 281.21086121 146.52070618 C281.24121189 148.65409666 281.2588734 150.78731421 281.27507019 152.92085266 C281.30032776 154.81782898 281.30032776 154.81782898 281.32609558 156.75312805 C281.11266307 160.29808172 280.25840292 162.92230764 279.11491394 166.26069641 C278.81181019 169.37874615 278.81181019 169.37874615 278.84928894 172.62007141 C278.84542175 174.4183136 278.84542175 174.4183136 278.84147644 176.25288391 C278.84921082 177.49296204 278.85694519 178.73304016 278.86491394 180.01069641 C278.85717957 181.23530579 278.84944519 182.45991516 278.84147644 183.72163391 C278.84405457 184.92561829 278.84663269 186.12960266 278.84928894 187.37007141 C278.85267273 188.99380676 278.85267273 188.99380676 278.85612488 190.65034485 C279.06436415 193.55547912 279.46513748 196.03982128 280.09268188 198.86018372 C281.14325246 204.01465271 281.54644905 209.02979602 281.72941589 214.2792511 C281.76694379 215.22263714 281.80447168 216.16602318 281.84313679 217.13799667 C282.2645027 228.74351443 282.27913884 240.35210189 282.28288269 251.96382141 C282.28610527 254.34897378 282.28947005 256.73412597 282.29296875 259.11927795 C282.29889439 264.06388306 282.30081481 269.00847083 282.30021667 273.95307922 C282.30011383 280.2994135 282.31391933 286.64563894 282.33098888 292.99194717 C282.34206211 297.89194762 282.34413756 302.79192099 282.34360695 307.69193268 C282.34478822 310.0347965 282.34921823 312.37766099 282.35693932 314.72051239 C282.36667148 317.96999094 282.36389141 321.21922221 282.35783386 324.46870422 C282.36345337 325.43683044 282.36907288 326.40495667 282.37486267 327.40242004 C282.36857094 328.72194672 282.36857094 328.72194672 282.3621521 330.06813049 C282.36269687 330.83414204 282.36324163 331.60015358 282.36380291 332.38937759 C282.11491394 334.26069641 282.11491394 334.26069641 280.11491394 336.26069641 C279.36155276 338.18650632 279.36155276 338.18650632 278.73991394 340.38569641 C277.31549207 344.83161922 275.79523831 349.39787599 273.11491394 353.26069641 C272.12491394 353.59069641 271.13491394 353.92069641 270.11491394 354.26069641 C269.78491394 355.91069641 269.45491394 357.56069641 269.11491394 359.26069641 C268.12491394 359.59069641 267.13491394 359.92069641 266.11491394 360.26069641 C265.94991394 360.92069641 265.78491394 361.58069641 265.61491394 362.26069641 C265.44991394 362.92069641 265.28491394 363.58069641 265.11491394 364.26069641 C264.12491394 364.59069641 263.13491394 364.92069641 262.11491394 365.26069641 C261.78491394 366.25069641 261.45491394 367.24069641 261.11491394 368.26069641 C256.47748773 373.24506224 251.29470095 376.55336115 245.11491394 379.26069641 C244.42784363 379.59843079 243.74077332 379.93616516 243.03288269 380.28413391 C229.53528365 386.75325345 216.28553011 386.70308828 201.63371277 386.68061829 C199.36398401 386.68796718 197.09425899 386.69655578 194.82453918 386.70628357 C188.68584102 386.72842417 182.54727739 386.7314339 176.40854478 386.72953606 C171.26987424 386.72941599 166.13123182 386.73799517 160.99256915 386.74631357 C148.16756884 386.76661801 135.3426669 386.76770781 122.51765992 386.76050645 C111.41708666 386.75493661 100.31674458 386.77574036 89.2162253 386.80886692 C77.78113606 386.84272334 66.34620139 386.8572844 54.91105288 386.85314989 C48.50600842 386.85109002 42.1011942 386.85644342 35.69619179 386.88104248 C29.66722285 386.90343398 23.63873213 386.90132886 17.60976028 386.88111496 C15.40929601 386.87772657 13.20879875 386.88269912 11.00837898 386.89709854 C-6.09169307 387.0011931 -20.82043613 384.93337336 -35.88508606 376.26069641 C-36.91633606 375.70382141 -37.94758606 375.14694641 -39.01008606 374.57319641 C-39.62883606 374.14007141 -40.24758606 373.70694641 -40.88508606 373.26069641 C-40.88508606 372.60069641 -40.88508606 371.94069641 -40.88508606 371.26069641 C-42.20508606 370.93069641 -43.52508606 370.60069641 -44.88508606 370.26069641 C-44.88508606 369.60069641 -44.88508606 368.94069641 -44.88508606 368.26069641 C-46.20508606 367.60069641 -47.52508606 366.94069641 -48.88508606 366.26069641 C-48.88508606 365.60069641 -48.88508606 364.94069641 -48.88508606 364.26069641 C-49.44969543 364.0583136 -50.01430481 363.85593079 -50.59602356 363.64741516 C-53.74839664 361.73770109 -55.48436122 359.06789296 -57.51008606 356.07319641 C-57.90453918 355.52083313 -58.29899231 354.96846985 -58.70539856 354.39936829 C-61.38995382 350.49497288 -62.71934996 346.89690375 -63.88508606 342.26069641 C-64.39855844 341.0751197 -64.39855844 341.0751197 -64.92240399 339.86559194 C-65.94016727 337.11165364 -66.13662812 335.11859319 -66.13956165 332.19564915 C-66.14830994 330.69188987 -66.14830994 330.69188987 -66.15723497 329.15775162 C-66.15345564 328.06359733 -66.14967632 326.96944305 -66.14578247 325.84213257 C-66.14960802 324.67419786 -66.15343356 323.50626316 -66.15737504 322.30293649 C-66.16590856 319.06491987 -66.16547127 315.82704804 -66.16119444 312.58902752 C-66.15872865 309.09543164 -66.16773954 305.60186248 -66.17523193 302.10827637 C-66.18798487 295.26556088 -66.1897719 288.42288462 -66.18743167 281.58015925 C-66.18564908 276.01873085 -66.18739688 270.45731436 -66.19165611 264.89588737 C-66.1922513 264.10454385 -66.19284649 263.31320032 -66.19345972 262.49787669 C-66.19467146 260.89029674 -66.19588559 259.2827168 -66.19710209 257.67513686 C-66.20797984 242.59747671 -66.20581398 227.51983893 -66.19971725 212.44217753 C-66.1945474 198.64695315 -66.20580488 184.85179937 -66.22481547 171.05658896 C-66.24418439 156.89281957 -66.25245156 142.7290836 -66.24869221 128.56530088 C-66.24677879 120.61293842 -66.24928148 112.66063605 -66.26340675 104.70828438 C-66.27530946 97.93868379 -66.27673794 91.1691803 -66.26461659 84.3995784 C-66.25872015 80.94565773 -66.2576494 77.49191476 -66.26961899 74.03800583 C-66.28002867 70.29391917 -66.27203169 66.55031294 -66.25930786 62.8062439 C-66.26668215 61.71432033 -66.27405643 60.62239677 -66.28165418 59.49738461 C-66.24185147 53.94600545 -65.92881294 50.09188121 -62.88508606 45.26069641 C-62.39273833 43.81349246 -61.93076316 42.35533458 -61.51008606 40.88569641 C-59.3778383 34.25451752 -55.55583789 28.41462947 -50.88508606 23.26069641 C-50.22508606 23.26069641 -49.56508606 23.26069641 -48.88508606 23.26069641 C-48.78196106 22.62132141 -48.67883606 21.98194641 -48.57258606 21.32319641 C-48.34571106 20.64257141 -48.11883606 19.96194641 -47.88508606 19.26069641 C-46.89508606 18.93069641 -45.90508606 18.60069641 -44.88508606 18.26069641 C-44.55508606 17.27069641 -44.22508606 16.28069641 -43.88508606 15.26069641 C-42.89508606 15.26069641 -41.90508606 15.26069641 -40.88508606 15.26069641 C-40.88508606 14.60069641 -40.88508606 13.94069641 -40.88508606 13.26069641 C-27.53845686 5.36893954 -15.81869764 -0.06824025 0 0 Z " fill="#0559E3" transform="translate(96.88508605957031,44.73930358886719)"/>
<path d="M0 0 C0.95477429 -0.00382555 1.90954857 -0.00765109 2.89325541 -0.01159257 C6.07112121 -0.02185597 9.24880408 -0.0179431 12.42668152 -0.01396179 C14.71392991 -0.01831197 17.00117685 -0.02349614 19.28842163 -0.02944946 C25.48686031 -0.04281836 31.68523793 -0.04342042 37.88368821 -0.04088616 C43.06492307 -0.03981493 48.24614565 -0.04470378 53.42737788 -0.04949158 C66.35357489 -0.06121314 79.27973302 -0.06036588 92.20593169 -0.05393478 C103.41024434 -0.04876817 114.61446999 -0.06001672 125.81876544 -0.07903299 C137.34524609 -0.09844489 148.87167536 -0.10637056 160.39817351 -0.10290974 C166.86061147 -0.10109973 173.32296976 -0.10370492 179.78539467 -0.11762428 C185.86509667 -0.13022971 191.94462499 -0.12823271 198.02432442 -0.11521339 C200.24945892 -0.11285391 202.47460575 -0.11555964 204.6997261 -0.12383652 C225.23424268 -0.19468292 241.13226615 3.13398346 258.11491394 15.26069641 C258.11491394 15.92069641 258.11491394 16.58069641 258.11491394 17.26069641 C260.09491394 18.25069641 260.09491394 18.25069641 262.11491394 19.26069641 C262.11491394 19.92069641 262.11491394 20.58069641 262.11491394 21.26069641 C264.09491394 22.25069641 264.09491394 22.25069641 266.11491394 23.26069641 C266.11491394 24.25069641 266.11491394 25.24069641 266.11491394 26.26069641 C268.09491394 27.25069641 268.09491394 27.25069641 270.11491394 28.26069641 C270.11491394 29.58069641 270.11491394 30.90069641 270.11491394 32.26069641 C270.71303894 32.44632141 271.31116394 32.63194641 271.92741394 32.82319641 C277.13054873 36.24239927 278.02569616 44.31722409 279.46647644 50.00288391 C279.90313484 52.2103988 279.90313484 52.2103988 281.11491394 53.26069641 C282.52185272 60.11812841 282.25878403 67.07049646 282.24772644 74.04194641 C282.24840128 75.38280759 282.2493728 76.72366865 282.25062561 78.06452942 C282.25209411 80.86511915 282.2499754 83.66567683 282.24528503 86.46626282 C282.23958826 90.0402761 282.24287182 93.61421426 282.2488575 97.18822479 C282.25248606 99.95416318 282.25131401 102.72008401 282.24872971 105.48602295 C282.24774649 107.43960113 282.25076186 109.39318001 282.25386047 111.34675598 C282.23871146 117.10493083 282.01993498 122.56412409 281.11491394 128.26069641 C281.05891332 130.75096892 281.05221819 133.24270145 281.08757019 135.73335266 C281.1002092 137.1415534 281.11257069 138.54975664 281.12467957 139.95796204 C281.14950308 142.145626 281.1775655 144.33315417 281.21086121 146.52070618 C281.24121189 148.65409666 281.2588734 150.78731421 281.27507019 152.92085266 C281.30032776 154.81782898 281.30032776 154.81782898 281.32609558 156.75312805 C281.11266307 160.29808172 280.25840292 162.92230764 279.11491394 166.26069641 C278.81181019 169.37874615 278.81181019 169.37874615 278.84928894 172.62007141 C278.84542175 174.4183136 278.84542175 174.4183136 278.84147644 176.25288391 C278.84921082 177.49296204 278.85694519 178.73304016 278.86491394 180.01069641 C278.85717957 181.23530579 278.84944519 182.45991516 278.84147644 183.72163391 C278.84405457 184.92561829 278.84663269 186.12960266 278.84928894 187.37007141 C278.85267273 188.99380676 278.85267273 188.99380676 278.85612488 190.65034485 C279.06436415 193.55547912 279.46513748 196.03982128 280.09268188 198.86018372 C281.14325246 204.01465271 281.54644905 209.02979602 281.72941589 214.2792511 C281.76694379 215.22263714 281.80447168 216.16602318 281.84313679 217.13799667 C282.2645027 228.74351443 282.27913884 240.35210189 282.28288269 251.96382141 C282.28610527 254.34897378 282.28947005 256.73412597 282.29296875 259.11927795 C282.29889439 264.06388306 282.30081481 269.00847083 282.30021667 273.95307922 C282.30011383 280.2994135 282.31391933 286.64563894 282.33098888 292.99194717 C282.34206211 297.89194762 282.34413756 302.79192099 282.34360695 307.69193268 C282.34478822 310.0347965 282.34921823 312.37766099 282.35693932 314.72051239 C282.36667148 317.96999094 282.36389141 321.21922221 282.35783386 324.46870422 C282.36345337 325.43683044 282.36907288 326.40495667 282.37486267 327.40242004 C282.36857094 328.72194672 282.36857094 328.72194672 282.3621521 330.06813049 C282.36269687 330.83414204 282.36324163 331.60015358 282.36380291 332.38937759 C282.11491394 334.26069641 282.11491394 334.26069641 280.11491394 336.26069641 C279.36155276 338.18650632 279.36155276 338.18650632 278.73991394 340.38569641 C277.31549207 344.83161922 275.79523831 349.39787599 273.11491394 353.26069641 C272.12491394 353.59069641 271.13491394 353.92069641 270.11491394 354.26069641 C269.78491394 355.91069641 269.45491394 357.56069641 269.11491394 359.26069641 C268.12491394 359.59069641 267.13491394 359.92069641 266.11491394 360.26069641 C265.94991394 360.92069641 265.78491394 361.58069641 265.61491394 362.26069641 C265.44991394 362.92069641 265.28491394 363.58069641 265.11491394 364.26069641 C264.12491394 364.59069641 263.13491394 364.92069641 262.11491394 365.26069641 C261.78491394 366.25069641 261.45491394 367.24069641 261.11491394 368.26069641 C256.47748773 373.24506224 251.29470095 376.55336115 245.11491394 379.26069641 C244.42784363 379.59843079 243.74077332 379.93616516 243.03288269 380.28413391 C229.53528365 386.75325345 216.28553011 386.70308828 201.63371277 386.68061829 C199.36398401 386.68796718 197.09425899 386.69655578 194.82453918 386.70628357 C188.68584102 386.72842417 182.54727739 386.7314339 176.40854478 386.72953606 C171.26987424 386.72941599 166.13123182 386.73799517 160.99256915 386.74631357 C148.16756884 386.76661801 135.3426669 386.76770781 122.51765992 386.76050645 C111.41708666 386.75493661 100.31674458 386.77574036 89.2162253 386.80886692 C77.78113606 386.84272334 66.34620139 386.8572844 54.91105288 386.85314989 C48.50600842 386.85109002 42.1011942 386.85644342 35.69619179 386.88104248 C29.66722285 386.90343398 23.63873213 386.90132886 17.60976028 386.88111496 C15.40929601 386.87772657 13.20879875 386.88269912 11.00837898 386.89709854 C-6.09169307 387.0011931 -20.82043613 384.93337336 -35.88508606 376.26069641 C-36.91633606 375.70382141 -37.94758606 375.14694641 -39.01008606 374.57319641 C-39.62883606 374.14007141 -40.24758606 373.70694641 -40.88508606 373.26069641 C-40.88508606 372.60069641 -40.88508606 371.94069641 -40.88508606 371.26069641 C-42.20508606 370.93069641 -43.52508606 370.60069641 -44.88508606 370.26069641 C-44.88508606 369.60069641 -44.88508606 368.94069641 -44.88508606 368.26069641 C-46.20508606 367.60069641 -47.52508606 366.94069641 -48.88508606 366.26069641 C-48.88508606 365.60069641 -48.88508606 364.94069641 -48.88508606 364.26069641 C-49.44969543 364.0583136 -50.01430481 363.85593079 -50.59602356 363.64741516 C-53.74839664 361.73770109 -55.48436122 359.06789296 -57.51008606 356.07319641 C-57.90453918 355.52083313 -58.29899231 354.96846985 -58.70539856 354.39936829 C-61.38995382 350.49497288 -62.71934996 346.89690375 -63.88508606 342.26069641 C-64.39855844 341.0751197 -64.39855844 341.0751197 -64.92240399 339.86559194 C-65.94016727 337.11165364 -66.13662812 335.11859319 -66.13956165 332.19564915 C-66.14830994 330.69188987 -66.14830994 330.69188987 -66.15723497 329.15775162 C-66.15345564 328.06359733 -66.14967632 326.96944305 -66.14578247 325.84213257 C-66.14960802 324.67419786 -66.15343356 323.50626316 -66.15737504 322.30293649 C-66.16590856 319.06491987 -66.16547127 315.82704804 -66.16119444 312.58902752 C-66.15872865 309.09543164 -66.16773954 305.60186248 -66.17523193 302.10827637 C-66.18798487 295.26556088 -66.1897719 288.42288462 -66.18743167 281.58015925 C-66.18564908 276.01873085 -66.18739688 270.45731436 -66.19165611 264.89588737 C-66.1922513 264.10454385 -66.19284649 263.31320032 -66.19345972 262.49787669 C-66.19467146 260.89029674 -66.19588559 259.2827168 -66.19710209 257.67513686 C-66.20797984 242.59747671 -66.20581398 227.51983893 -66.19971725 212.44217753 C-66.1945474 198.64695315 -66.20580488 184.85179937 -66.22481547 171.05658896 C-66.24418439 156.89281957 -66.25245156 142.7290836 -66.24869221 128.56530088 C-66.24677879 120.61293842 -66.24928148 112.66063605 -66.26340675 104.70828438 C-66.27530946 97.93868379 -66.27673794 91.1691803 -66.26461659 84.3995784 C-66.25872015 80.94565773 -66.2576494 77.49191476 -66.26961899 74.03800583 C-66.28002867 70.29391917 -66.27203169 66.55031294 -66.25930786 62.8062439 C-66.26668215 61.71432033 -66.27405643 60.62239677 -66.28165418 59.49738461 C-66.24185147 53.94600545 -65.92881294 50.09188121 -62.88508606 45.26069641 C-62.39273833 43.81349246 -61.93076316 42.35533458 -61.51008606 40.88569641 C-59.3778383 34.25451752 -55.55583789 28.41462947 -50.88508606 23.26069641 C-50.22508606 23.26069641 -49.56508606 23.26069641 -48.88508606 23.26069641 C-48.78196106 22.62132141 -48.67883606 21.98194641 -48.57258606 21.32319641 C-48.34571106 20.64257141 -48.11883606 19.96194641 -47.88508606 19.26069641 C-46.89508606 18.93069641 -45.90508606 18.60069641 -44.88508606 18.26069641 C-44.55508606 17.27069641 -44.22508606 16.28069641 -43.88508606 15.26069641 C-42.89508606 15.26069641 -41.90508606 15.26069641 -40.88508606 15.26069641 C-40.88508606 14.60069641 -40.88508606 13.94069641 -40.88508606 13.26069641 C-27.53845686 5.36893954 -15.81869764 -0.06824025 0 0 Z M-14.88508606 4.26069641 C-15.73715637 4.4605011 -16.58922668 4.66030579 -17.46711731 4.86616516 C-33.50935941 9.0523194 -46.82696006 21.89306315 -55.13508606 35.88569641 C-60.73438911 46.68435229 -62.19228132 56.69909171 -62.13905334 68.75299072 C-62.14217333 69.85648174 -62.14529331 70.95997276 -62.14850783 72.09690291 C-62.15643595 75.76605828 -62.15018442 79.43504589 -62.14387512 83.10420227 C-62.1465873 85.74642414 -62.15007766 88.38863475 -62.15449524 91.03085327 C-62.16335866 97.44563319 -62.1614808 103.86036614 -62.15566996 110.27514785 C-62.15114102 115.49217769 -62.15054588 120.70919442 -62.15271759 125.92622566 C-62.15302406 126.67061813 -62.15333052 127.4150106 -62.15364628 128.18196042 C-62.15428577 129.69450478 -62.1549342 131.20704913 -62.15559146 132.71959347 C-62.16128592 146.8818304 -62.15475097 161.04404137 -62.14399073 175.20627404 C-62.13505786 187.33860426 -62.13660679 199.47089618 -62.14582825 211.60322571 C-62.15654971 225.71552696 -62.16073474 239.82780551 -62.15460372 253.94011027 C-62.15396667 255.44719064 -62.15333793 256.95427102 -62.15271759 258.46135139 C-62.15240904 259.20272776 -62.15210049 259.94410412 -62.15178259 260.70794643 C-62.15006113 265.91372135 -62.1529589 271.11948177 -62.1576767 276.32525444 C-62.1633065 282.67657752 -62.16172525 289.02785121 -62.15111521 295.37916868 C-62.14588632 298.6151147 -62.14484435 301.85096233 -62.15041351 305.08691025 C-62.15590869 308.60516059 -62.14898667 312.12318252 -62.13905334 315.64141846 C-62.14351479 316.64951708 -62.14797623 317.65761571 -62.15257287 318.69626278 C-62.09748383 328.81125437 -61.04063305 338.45429645 -56.19758606 347.44819641 C-55.66693542 348.46707947 -55.66693542 348.46707947 -55.12556458 349.50654602 C-52.24730329 354.89178383 -48.98855344 359.72329915 -44.88508606 364.26069641 C-44.35528137 364.87042297 -43.82547668 365.48014954 -43.27961731 366.10835266 C-34.07191227 376.05967283 -19.63809565 383.68876257 -5.94451725 384.35512984 C-3.52396049 384.39866998 -1.10524903 384.40838228 1.31570435 384.40786743 C2.70999589 384.41338246 2.70999589 384.41338246 4.13245493 384.41900891 C7.24892799 384.43002671 10.36536769 384.43388641 13.4818573 384.43769836 C15.71600958 384.44396458 17.95016081 384.45061152 20.18431091 384.45761108 C27.52445247 384.47863959 34.86459421 384.48901412 42.20475769 384.49897766 C44.73445204 384.50302603 47.26414628 384.50714298 49.79384041 384.51132774 C60.32051608 384.52819631 70.84719062 384.54282954 81.37387753 384.55007648 C84.10339293 384.55198617 86.83290833 384.55390653 89.56242371 384.55586243 C90.24077464 384.55634617 90.91912556 384.55682991 91.61803258 384.55732831 C102.59170434 384.56561765 113.56526671 384.59093674 124.53889077 384.6234431 C135.82341993 384.65659586 147.10789575 384.67420058 158.39247996 384.67772073 C164.72094407 384.68006669 171.0492353 384.68896799 177.37765312 384.7141819 C183.33750024 384.73754333 189.29706163 384.74166332 195.25694275 384.73142052 C197.43609126 384.73092697 199.61525423 384.73719355 201.79435921 384.75097656 C221.20632939 384.8668191 238.54836652 381.99696248 254.11491394 369.26069641 C254.11491394 368.60069641 254.11491394 367.94069641 254.11491394 367.26069641 C254.69499207 367.03382141 255.27507019 366.80694641 255.87272644 366.57319641 C260.51480143 363.85588422 263.15294095 358.63503875 266.11491394 354.26069641 C266.67952332 353.4498761 267.24413269 352.63905579 267.82585144 351.80366516 C277.56963953 336.89121791 276.68564561 320.83635272 276.61662292 303.70942688 C276.62041063 301.02734056 276.62576302 298.3452983 276.63299561 295.66322327 C276.64685671 289.16257384 276.63942548 282.66211999 276.62432002 276.16148005 C276.60737517 268.57782867 276.61068074 260.99422486 276.6144141 253.41056038 C276.62027942 239.87309898 276.60617241 226.33573088 276.58146667 212.79829407 C276.55754031 199.68627935 276.55046783 186.5743892 276.56095886 173.46235657 C276.57238723 159.15335279 276.5742752 144.84440648 276.55986077 130.53540337 C276.55833506 129.00758688 276.5568147 127.47977039 276.55529976 125.95195389 C276.55454194 125.20040605 276.55378413 124.44885821 276.55300335 123.67453619 C276.54827608 118.39809082 276.5501008 113.12167125 276.55436516 107.84522629 C276.55930921 101.40977127 276.55323012 94.97443363 276.53347086 88.53900538 C276.5236499 85.26047378 276.52006386 81.98215519 276.52636337 78.70360947 C276.5323513 75.13943202 276.51974337 71.57577331 276.50259399 68.01164246 C276.50860404 66.9900264 276.51461408 65.96841034 276.52080625 64.91583622 C276.4422537 55.89052026 274.59800686 47.58716907 271.11491394 39.26069641 C270.45491394 39.26069641 269.79491394 39.26069641 269.11491394 39.26069641 C268.71272644 37.40444641 268.71272644 37.40444641 268.30241394 35.51069641 C264.02517944 22.85803994 250.3538432 13.44164559 238.97428894 7.66694641 C229.62907239 3.54546629 220.5182291 1.9532659 210.34840393 2.00672913 C209.41853782 2.00360914 208.48867172 2.00048916 207.53062785 1.99727464 C204.44325983 1.98935559 201.3560917 1.99559432 198.26872253 2.00190735 C196.04380173 1.99919482 193.81888183 1.99563241 191.59396362 1.99128723 C185.57146092 1.98219325 179.54902697 1.98569488 173.52652311 1.9920454 C167.21619199 1.99711961 160.90586664 1.99241012 154.59553528 1.98927307 C143.32415329 1.9854055 132.05279957 1.99160757 120.78142424 2.00179175 C110.57225954 2.01073066 100.36314032 2.00917031 90.15397644 1.99995422 C78.27977867 1.98923998 66.40560291 1.98527281 54.53139937 1.99117875 C48.25244723 1.99429405 41.97352638 1.99471974 35.69457626 1.98810577 C29.7930089 1.98232308 23.89152736 1.98634621 17.98996925 1.99789429 C15.82604553 2.00053567 13.66211457 1.99978469 11.49819374 1.99536896 C8.54118432 1.98989171 5.58444871 1.99677412 2.62745667 2.00672913 C1.77433533 2.00226768 0.921214 1.99780624 0.0422405 1.9932096 C-5.26125141 2.02776376 -9.78318019 2.79890267 -14.88508606 4.26069641 Z " fill="#151F35" transform="translate(96.88508605957031,44.73930358886719)"/>
<path d="M0 0 C6.36533746 3.36147034 13.3074914 8.61352961 16.3125 15.3125 C18.05308234 21.34651877 18.42284745 26.81298409 18.453125 33.0625 C18.45882507 33.97580078 18.46452515 34.88910156 18.47039795 35.83007812 C18.47982102 37.75649872 18.48637119 39.68293523 18.49023438 41.609375 C18.49996649 44.55236796 18.53102588 47.49466994 18.5625 50.4375 C18.5690282 52.31249587 18.57427939 54.18749671 18.578125 56.0625 C18.5904718 56.93970703 18.6028186 57.81691406 18.61553955 58.72070312 C18.59216225 65.14208705 17.30904985 68.39785785 12.8125 73.125 C11.966875 73.929375 11.12125 74.73375 10.25 75.5625 C9.528125 76.325625 8.80625 77.08875 8.0625 77.875 C6.25 79.5625 6.25 79.5625 4.25 79.5625 C4.25 80.2225 4.25 80.8825 4.25 81.5625 C-3.99193506 85.77114769 -14.72326647 86.34331319 -23.60546875 83.71875 C-32.2440167 79.31769975 -37.65920413 71.55458832 -40.75 62.5625 C-41.26422031 59.28483344 -41.29002534 56.09021064 -41.24609375 52.77734375 C-41.24754898 51.87681778 -41.24900421 50.97629181 -41.25050354 50.04847717 C-41.24885477 48.15850565 -41.23740923 46.26851926 -41.21655273 44.37866211 C-41.18753844 41.50380863 -41.19597783 38.63079733 -41.20898438 35.75585938 C-41.20274713 33.90884531 -41.19435631 32.06183699 -41.18359375 30.21484375 C-41.18652939 29.36566879 -41.18946503 28.51649384 -41.19248962 27.6415863 C-41.06199826 19.29599259 -38.75178171 12.60753461 -32.9453125 6.4609375 C-23.65507218 -1.57297139 -11.70535445 -4.43853828 0 0 Z " fill="#FAFBFE" transform="translate(248.75,296.4375)"/>
<path d="M0 0 C0.79792969 0.4846875 1.59585938 0.969375 2.41796875 1.46875 C2.41796875 2.12875 2.41796875 2.78875 2.41796875 3.46875 C3.13984375 3.675 3.86171875 3.88125 4.60546875 4.09375 C10.63279397 7.04044233 14.12282213 13.34824846 16.41796875 19.46875 C16.97027907 22.66135827 17.02655382 25.78035488 17.01953125 29.015625 C17.0281015 29.90807922 17.03667175 30.80053345 17.04550171 31.72003174 C17.05692734 33.59912748 17.05803393 35.47831162 17.04931641 37.35742188 C17.04301436 40.19819105 17.08990621 43.0347475 17.140625 45.875 C17.22166107 57.47442561 16.53101531 66.64149546 8.44116211 75.67651367 C2.23433299 81.73640628 -4.44025289 84.6568814 -13.08203125 84.96875 C-21.72761021 84.65674424 -28.38723678 81.73271436 -34.60498047 75.68286133 C-42.96579788 66.31953049 -43.45877331 56.35377839 -43.19946289 44.45019531 C-43.14447127 41.8409038 -43.13793713 39.23481306 -43.13867188 36.625 C-43.06384394 24.55244798 -42.6776063 14.4612847 -33.78125 5.453125 C-24.83178333 -2.62205985 -11.34836504 -4.85120948 0 0 Z " fill="#FBFCFE" transform="translate(183.58203125,94.53125)"/>
<path d="M0 0 C0.77730469 -0.02449219 1.55460937 -0.04898438 2.35546875 -0.07421875 C11.64343609 -0.12104884 17.34441925 4.87300931 24.015625 10.98828125 C27.03873137 14.40887012 27.57504162 16.89676744 28.125 21.375 C28.62 22.365 28.62 22.365 29.125 23.375 C29.2487139 26.27102995 29.31345944 29.14198925 29.328125 32.0390625 C29.33382507 32.90510101 29.33952515 33.77113953 29.34539795 34.66342163 C29.3548564 36.50102515 29.36138528 38.3386457 29.36523438 40.17626953 C29.37488962 42.96808229 29.4058835 45.75914295 29.4375 48.55078125 C29.44403527 50.33853731 29.44928368 52.12629862 29.453125 53.9140625 C29.4654718 54.74144928 29.4778186 55.56883606 29.49053955 56.42129517 C29.45706266 65.27570923 26.67557411 71.80087817 20.546875 78.25390625 C13.45960579 84.46098235 5.80118709 87.46524504 -3.63671875 86.9453125 C-13.09289197 85.27993097 -19.49151453 80.6425101 -25.25390625 73.1328125 C-29.05399912 66.66807619 -30.33724003 61.0392993 -30.30859375 53.66796875 C-30.3138356 52.86192703 -30.31907745 52.05588531 -30.32447815 51.22541809 C-30.33086146 49.53041731 -30.32960956 47.83537202 -30.32104492 46.14038086 C-30.312555 43.57909178 -30.34131334 41.02005284 -30.37304688 38.45898438 C-30.42259658 27.01362841 -29.74622802 16.54058139 -21.44921875 7.8046875 C-14.76812124 1.73699101 -8.73444411 0.01434227 0 0 Z " fill="#FAFCFE" transform="translate(303.875,92.625)"/>
<path d="M0 0 C5.97357607 3.79645949 11.20551822 8.87039088 13.9375 15.5 C14.9697074 20.41525128 15.0983247 25.15599862 15.10546875 30.15234375 C15.11046135 31.37988121 15.11046135 31.37988121 15.11555481 32.63221741 C15.12059725 34.35596152 15.12296397 36.07971531 15.12280273 37.8034668 C15.12499023 40.42578338 15.1431771 43.04767951 15.16210938 45.66992188 C15.16504375 47.35156107 15.16702825 49.03320225 15.16796875 50.71484375 C15.17515427 51.49109604 15.18233978 52.26734833 15.18974304 53.06712341 C15.16961389 57.91449239 14.47471787 61.89748516 12.9375 66.5 C12.2775 66.5 11.6175 66.5 10.9375 66.5 C10.751875 67.180625 10.56625 67.86125 10.375 68.5625 C7.10917988 75.23613241 1.76069079 79.38409502 -5.18359375 81.84375 C-13.20610225 83.67249007 -22.86532348 83.99260079 -30.0625 79.5 C-37.34143153 74.21396458 -41.21800867 69.03347398 -44.0625 60.5 C-44.16252696 59.14096353 -44.21068066 57.77769007 -44.22363281 56.41503906 C-44.23324036 55.59698792 -44.2428479 54.77893677 -44.25274658 53.93609619 C-44.2591214 52.61421295 -44.2591214 52.61421295 -44.265625 51.265625 C-44.27132507 50.35423767 -44.27702515 49.44285034 -44.28289795 48.50384521 C-44.29234509 46.57386433 -44.2988808 44.64386734 -44.30273438 42.71386719 C-44.3124173 39.77510028 -44.34343395 36.83703961 -44.375 33.8984375 C-44.38153266 32.02083747 -44.3867821 30.14323246 -44.390625 28.265625 C-44.4029718 27.39246643 -44.4153186 26.51930786 -44.42803955 25.61968994 C-44.39331171 16.00753542 -40.70070322 10.27096728 -34.0625 3.5 C-25.57064334 -4.56726383 -10.25016865 -5.2172366 0 0 Z " fill="#FBFCFE" transform="translate(252.0625,168.5)"/>
<path d="M0 0 C6.08682895 4.48224006 10.21475476 11.6156145 11.39855957 19.05493164 C11.88190564 24.22839769 11.89788822 29.39154478 11.82519531 34.58349609 C11.79301001 37.31680816 11.82501444 40.04421072 11.86328125 42.77734375 C11.89057392 54.12999765 11.00322924 63.30172043 2.98925781 72.06640625 C-3.58052911 78.40119301 -10.0600353 80.32966311 -18.95703125 80.1953125 C-19.7253125 80.20691406 -20.49359375 80.21851563 -21.28515625 80.23046875 C-27.96005947 80.19641312 -33.60974799 78.71876444 -38.51953125 73.8828125 C-47.89952158 63.34925463 -48.90358878 53.50520532 -48.68432617 39.94726562 C-48.64448972 37.19244068 -48.66372691 34.44241033 -48.68945312 31.6875 C-48.68537146 20.74630076 -47.69829542 13.19981836 -41.03515625 4.234375 C-29.19833669 -7.34952106 -14.25416403 -8.59233041 0 0 Z " fill="#FCFDFE" transform="translate(188.95703125,236.1796875)"/>
<path d="M0 0 C5.89300857 3.59165392 12.22861365 7.88151844 13.953125 14.89453125 C14.0975 16.07015625 14.241875 17.24578125 14.390625 18.45703125 C14.885625 19.44703125 14.885625 19.44703125 15.390625 20.45703125 C15.51441123 23.43746616 15.5790939 26.39354294 15.59375 29.375 C15.59945007 30.26560623 15.60515015 31.15621246 15.61102295 32.07380676 C15.62048082 33.96268524 15.62701005 35.85158028 15.63085938 37.74047852 C15.64052803 40.61569549 15.67152835 43.49018638 15.703125 46.36523438 C15.70965885 48.20181868 15.71490782 50.03840809 15.71875 51.875 C15.7310968 52.72942184 15.7434436 53.58384369 15.75616455 54.4641571 C15.72515288 62.87419999 13.04043364 68.38624791 7.36328125 74.59375 C-0.15497074 81.69514841 -7.51023918 82.92466666 -17.515625 82.7265625 C-25.19395366 82.36906234 -30.53664435 80.01543455 -35.734375 74.33203125 C-38.609375 70.82108655 -38.609375 70.82108655 -38.609375 68.45703125 C-39.599375 68.12703125 -40.589375 67.79703125 -41.609375 67.45703125 C-43.65429393 62.1791032 -43.92934395 57.24275468 -43.9453125 51.62890625 C-43.9519693 50.79925354 -43.9586261 49.96960083 -43.96548462 49.11480713 C-43.97556199 47.36676228 -43.98030317 45.61867934 -43.97998047 43.87060547 C-43.98434011 41.22817868 -44.02067314 38.58744309 -44.05859375 35.9453125 C-44.1346712 24.73599459 -43.82153433 14.85067359 -35.984375 6.08203125 C-25.71925307 -3.08864753 -12.88487795 -6.03711997 0 0 Z " fill="#FCFDFE" transform="translate(317.609375,233.54296875)"/>
<path d="M0 0 C6.46910289 4.7794982 11.49492776 10.21401834 14 18 C14.32920558 20.9373133 14.37531061 23.86251978 14.40625 26.81640625 C14.41765015 27.66871323 14.42905029 28.5210202 14.4407959 29.39915466 C14.45964925 31.20200681 14.47274534 33.00492715 14.48046875 34.80786133 C14.49977013 37.53007936 14.56179537 40.24920047 14.625 42.97070312 C14.76539235 54.4418894 13.81268463 63.5811815 5.75708008 72.47680664 C-0.91415117 79.00289488 -6.64772508 81.10831073 -15.875 81.4375 C-25.8161041 81.17197906 -32.2418073 78.44872282 -39.2109375 71.390625 C-44.24282188 64.66679697 -45.60477176 58.9912767 -45.53125 50.65625 C-45.5350769 49.68772095 -45.53890381 48.71919189 -45.54284668 47.72131348 C-45.54555512 45.68415277 -45.53826917 43.64695664 -45.52148438 41.60986328 C-45.50005972 38.50864423 -45.52132284 35.40974157 -45.546875 32.30859375 C-45.54423153 30.32030744 -45.53910617 28.33202255 -45.53125 26.34375 C-45.53934692 25.42581665 -45.54744385 24.5078833 -45.55578613 23.56213379 C-45.45153746 16.33167255 -43.58922577 11.19663858 -39.03515625 5.57421875 C-28.42342248 -4.57522166 -13.26662776 -8.71660899 0 0 Z " fill="#FCFDFE" transform="translate(120,170)"/>
<path d="M0 0 C1.31613281 -0.01417969 2.63226563 -0.02835937 3.98828125 -0.04296875 C12.34377514 0.47759528 19.40304581 5.81882904 25.125 11.6875 C29.22090558 18.24094893 30.14659598 23.34920133 30.12109375 30.9609375 C30.1263356 31.88411774 30.13157745 32.80729797 30.13697815 33.75845337 C30.14337519 35.70321654 30.14209152 37.64801852 30.13354492 39.59277344 C30.12504479 42.54693509 30.15381285 45.49915439 30.18554688 48.453125 C30.18715954 50.35156193 30.18658011 52.25000224 30.18359375 54.1484375 C30.20044472 55.45667984 30.20044472 55.45667984 30.21763611 56.79135132 C30.11766104 65.71805741 26.84549092 72.93855996 20.703125 79.390625 C13.13191573 86.14015265 5.41929605 87.08427199 -4.375 86.6015625 C-12.84433976 85.71093749 -17.9722841 81.66623909 -23.3125 75.1875 C-26.67237237 70.32077577 -28.41712634 65.90639203 -28.47363281 60.00488281 C-28.48324036 59.19013489 -28.4928479 58.37538696 -28.50274658 57.53594971 C-28.5091214 56.22651398 -28.5091214 56.22651398 -28.515625 54.890625 C-28.52417511 53.52922394 -28.52417511 53.52922394 -28.53289795 52.14031982 C-28.54233483 50.22051148 -28.54887672 48.30068704 -28.55273438 46.38085938 C-28.56241889 43.46194742 -28.59344599 40.5437462 -28.625 37.625 C-28.63153281 35.75521249 -28.63678219 33.88541997 -28.640625 32.015625 C-28.6529718 31.15076477 -28.6653186 30.28590454 -28.67803955 29.39483643 C-28.64682827 20.79036827 -26.23905189 14.38846132 -20.35546875 8.015625 C-17.03668104 5.04584938 -13.31559117 3.08713389 -9.3125 1.1875 C-6.32512272 -0.30618864 -3.27289093 0.00312001 0 0 Z " fill="#FCFDFE" transform="translate(103.3125,294.8125)"/>
<path d="M0 0 C0.33 0 0.66 0 1 0 C0.89404567 0.99110089 0.89404567 0.99110089 0.78595084 2.00222403 C0.1017518 8.85301278 -0.14426096 15.6105098 -0.13371277 22.49229431 C-0.13597833 23.59578533 -0.13824388 24.69927635 -0.14057809 25.8362065 C-0.1468692 29.50531716 -0.1460919 33.17439042 -0.14526367 36.84350586 C-0.14825815 39.48572424 -0.15163343 42.12793977 -0.15544128 44.77015686 C-0.16371413 51.18492315 -0.16649456 57.59968025 -0.16705366 64.01445144 C-0.16753027 69.2314787 -0.16959219 74.44850294 -0.17275429 79.66552925 C-0.18155037 94.48088586 -0.18617511 109.29623525 -0.18542381 124.11159449 C-0.18538386 124.90871118 -0.1853439 125.70582787 -0.18530273 126.52709961 C-0.18526185 127.32519736 -0.18522097 128.1232951 -0.18517885 128.94557763 C-0.18477231 141.88276999 -0.19434679 154.81993326 -0.2084411 167.7571172 C-0.22282363 181.06455149 -0.22971031 194.3719716 -0.22884732 207.67941386 C-0.22851609 215.1411411 -0.23123131 222.60283781 -0.24202538 230.06455803 C-0.25115494 236.41587633 -0.25328539 242.76715023 -0.24651595 249.11847227 C-0.24326358 252.35442182 -0.24424654 255.59026916 -0.2518692 258.82621384 C-0.25961805 262.34445838 -0.25492513 265.86248206 -0.24723816 269.38072205 C-0.25238172 270.38882067 -0.25752529 271.3969193 -0.26282471 272.43556637 C-0.21425053 282.55036294 0.84318838 292.19438728 5.6875 301.1875 C6.04271729 301.86748047 6.39793457 302.54746094 6.76391602 303.24804688 C16.00492091 320.49847188 29.55166842 330.26933547 48 336 C52.72290387 337.22942189 57.35508323 337.14820154 62.20079041 337.14717102 C63.59508195 337.15268605 63.59508195 337.15268605 65.01754099 337.1583125 C68.13401405 337.1693303 71.25045375 337.17319 74.36694336 337.17700195 C76.60109564 337.18326817 78.83524687 337.18991511 81.06939697 337.19691467 C88.40953853 337.21794318 95.74968027 337.22831771 103.08984375 337.23828125 C105.6195381 337.24232962 108.14923234 337.24644656 110.67892647 337.25063133 C121.20560214 337.2674999 131.73227668 337.28213313 142.25896358 337.28938007 C144.98847899 337.29128976 147.71799439 337.29321012 150.44750977 337.29516602 C151.12586069 337.29564976 151.80421162 337.2961335 152.50311864 337.2966319 C163.4767904 337.30492124 174.45035277 337.33024033 185.42397683 337.36274669 C196.70850599 337.39589945 207.99298181 337.41350417 219.27756602 337.41702431 C225.60603013 337.41937028 231.93432136 337.42827158 238.26273918 337.45348549 C244.2225863 337.47684692 250.18214769 337.4809669 256.14202881 337.47072411 C258.32117732 337.47023056 260.50034029 337.47649714 262.67944527 337.49028015 C279.91937488 337.59316086 296.66500555 336.13323294 310.71484375 324.8125 C313 323 313 323 315 323 C315 322.34 315 321.68 315 321 C316.15629692 319.84370308 317.31713228 318.69160101 318.5 317.5625 C320.78064919 315.18682376 322.64907309 312.53615252 324.5703125 309.8671875 C325.93438738 308.0856908 327.37745357 306.5457395 329 305 C329.33 306.98 329.66 308.96 330 311 C328.68 311.33 327.36 311.66 326 312 C325.67 313.65 325.34 315.3 325 317 C324.01 317.33 323.02 317.66 322 318 C321.67 318.99 321.34 319.98 321 321 C320.01 321 319.02 321 318 321 C317.95875 321.5775 317.9175 322.155 317.875 322.75 C316.56599744 326.11600658 313.99062016 327.1308624 311 329 C310.67 329.66 310.34 330.32 310 331 C295.39004122 340.54517307 278.93350581 340.58870678 262.17822266 340.53344727 C259.90804995 340.54051773 257.63788196 340.54926744 255.36772156 340.55955505 C249.2415525 340.58193276 243.11564323 340.57913641 236.98944902 340.57023358 C231.85807835 340.5650996 226.72675547 340.57243579 221.59538972 340.57970566 C208.7907191 340.59763527 195.98622749 340.59133194 183.18156855 340.57353585 C172.10057855 340.55884662 161.01985991 340.5734657 149.93890484 340.60230602 C138.51727049 340.63180801 127.09580754 340.64213466 115.67412794 340.63312382 C109.27920015 340.62821517 102.88448306 340.63029815 96.48958206 340.65091133 C90.47286777 340.66937959 84.45665423 340.66317399 78.4399662 340.63871193 C76.24434338 340.63373925 74.04868166 340.63710044 71.85309029 340.64986038 C54.75693641 340.74128238 40.06761749 338.64437019 25 330 C23.96875 329.46375 22.9375 328.9275 21.875 328.375 C21.25625 327.92125 20.6375 327.4675 20 327 C20 326.01 20 325.02 20 324 C19.34 324 18.68 324 18 324 C16.59765625 322.5390625 16.59765625 322.5390625 15.0625 320.625 C13.08013383 318.16098476 11.69300345 316.79533563 9 315 C9 314.01 9 313.02 9 312 C8.01 311.67 7.02 311.34 6 311 C5.67 309.02 5.34 307.04 5 305 C4.01 305 3.02 305 2 305 C1.89042969 304.32453125 1.78085937 303.6490625 1.66796875 302.953125 C1.50941406 302.06109375 1.35085937 301.1690625 1.1875 300.25 C1.03667969 299.36828125 0.88585938 298.4865625 0.73046875 297.578125 C0.17463743 294.96062447 0.17463743 294.96062447 -1.52205908 293.14791673 C-3.30619863 290.55499631 -3.37576509 289.17640706 -3.37752342 286.05520725 C-3.38534666 285.05407542 -3.39316991 284.05294358 -3.40123022 283.02147442 C-3.39453805 281.92372517 -3.38784589 280.82597592 -3.38095093 279.69496155 C-3.3856309 278.5271757 -3.39031087 277.35938986 -3.39513266 276.15621656 C-3.40503955 272.91394218 -3.40145882 269.67200378 -3.39217401 266.42973769 C-3.38539603 262.93341049 -3.39585856 259.43712927 -3.40411377 255.94081116 C-3.41746713 249.09091969 -3.41456613 242.24112673 -3.40587585 235.39123137 C-3.39910545 229.82452257 -3.39817979 224.25784141 -3.4014473 218.69112968 C-3.401907 217.89936194 -3.40236669 217.1075942 -3.40284032 216.2918335 C-3.40379949 214.68344629 -3.40477212 213.07505908 -3.4057581 211.46667188 C-3.41431683 196.37758685 -3.40447058 181.28855647 -3.388357 166.19948041 C-3.37495597 153.2495774 -3.37727919 140.29975507 -3.39111328 127.34985352 C-3.40716504 112.31695093 -3.41349008 97.28409627 -3.40427649 82.25118631 C-3.40332083 80.64835291 -3.40237772 79.0455195 -3.4014473 77.44268608 C-3.40098447 76.65403406 -3.40052164 75.86538203 -3.40004479 75.05283146 C-3.3974535 69.49268367 -3.40182896 63.93256626 -3.40888596 58.37242317 C-3.41729679 51.59654131 -3.41502975 44.82076371 -3.39904372 38.04489381 C-3.39115493 34.58705822 -3.38807959 31.12939653 -3.39799118 27.67156219 C-3.4061558 23.92487387 -3.39594585 20.17867877 -3.38095093 16.43202209 C-3.38764309 15.33650357 -3.39433526 14.24098504 -3.40123022 13.11226898 C-3.32914163 3.86314046 -3.32914163 3.86314046 0 0 Z " fill="#121219" transform="translate(36,91)"/>
<path d="M0 0 C0.96041881 -0.00311998 1.92083763 -0.00623996 2.91036004 -0.00945449 C6.10690425 -0.01738903 9.30325623 -0.01112871 12.49980164 -0.00482178 C14.80002961 -0.00753356 17.10025671 -0.01109555 19.40048218 -0.01544189 C25.63144578 -0.02454322 31.862343 -0.0210316 38.09330773 -0.01468372 C44.61505323 -0.00961513 51.1367931 -0.01431729 57.65853882 -0.01745605 C69.30500784 -0.02132463 80.95144659 -0.01511839 92.59791084 -0.00493738 C103.15799612 0.00400793 113.71803745 0.00243629 124.27812195 -0.0067749 C136.55110636 -0.01747523 148.82405949 -0.0214642 161.09704846 -0.01555037 C167.59051042 -0.0124295 174.08394209 -0.01202486 180.57740211 -0.01862335 C186.6767498 -0.0243889 192.7760142 -0.02041442 198.87535286 -0.00883484 C201.11674613 -0.0061846 203.35814638 -0.00695951 205.5995369 -0.01136017 C208.65214677 -0.01680231 211.70448749 -0.00999774 214.75708008 0 C215.64977154 -0.00446144 216.54246299 -0.00892289 217.46220571 -0.01351953 C218.27973418 -0.00830403 219.09726265 -0.00308854 219.9395647 0.002285 C220.64400363 0.00260971 221.34844255 0.00293441 222.07422811 0.00326896 C224.39999568 0.29673108 226.03199924 1.10775634 228.06108093 2.25396729 C228.06108093 2.58396729 228.06108093 2.91396729 228.06108093 3.25396729 C226.25545181 3.25120191 226.25545181 3.25120191 224.41334534 3.24838066 C195.82782857 3.20504914 167.24231225 3.17207832 138.65677005 3.15183663 C135.13708065 3.14933526 131.61739132 3.14674661 128.09770203 3.144104 C127.39700604 3.14357938 126.69631005 3.14305476 125.97438085 3.14251424 C114.63425392 3.13381566 103.29414731 3.11804869 91.95403242 3.09966169 C80.3148669 3.08094744 68.67571321 3.069997 57.03653336 3.0657903 C50.50032306 3.06318237 43.9641588 3.05705031 37.42796326 3.04250717 C31.27538556 3.02892855 25.12287286 3.02474525 18.9702816 3.02775192 C16.71283299 3.02720189 14.4553822 3.02322616 12.19794655 3.01555634 C9.11342667 3.00559083 6.02915152 3.00800439 2.94462585 3.01345825 C2.05355574 3.00763257 1.16248562 3.00180689 0.24441338 2.99580467 C-5.15566675 3.02157215 -9.74711443 3.75544979 -14.93891907 5.25396729 C-15.79098938 5.45377197 -16.64305969 5.65357666 -17.52095032 5.85943604 C-33.23914884 9.9610325 -45.98384628 22.12352653 -54.12641907 35.81646729 C-55.40972685 38.25032688 -56.48576515 40.53256782 -57.50141907 43.06646729 C-58.93891907 46.25396729 -58.93891907 46.25396729 -61.93891907 48.25396729 C-62.91277318 51.17552962 -63.06596735 53.03765702 -63.07034683 56.07850552 C-63.07418798 57.078263 -63.07802912 58.07802049 -63.08198667 59.10807365 C-63.08068694 60.76008997 -63.08068694 60.76008997 -63.07936096 62.44548035 C-63.08233208 63.61311733 -63.08530321 64.78075432 -63.08836436 65.98377424 C-63.0955517 69.23013232 -63.09822422 72.47645819 -63.09896183 75.72282302 C-63.10081142 79.22186304 -63.10835818 82.72089155 -63.11509705 86.21992493 C-63.1286837 93.87266277 -63.13470534 101.52539537 -63.1391077 109.17814326 C-63.14186904 113.95439627 -63.14610614 118.73064725 -63.15061188 123.50689888 C-63.16280398 136.72540504 -63.17310406 149.94390957 -63.17648697 163.16242123 C-63.17681632 164.43160904 -63.17681632 164.43160904 -63.17715232 165.72643701 C-63.1773706 166.57460599 -63.17758888 167.42277498 -63.17781377 168.29664606 C-63.17825724 170.01541134 -63.1787038 171.73417662 -63.17915344 173.45294189 C-63.17937487 174.30551197 -63.1795963 175.15808205 -63.17982444 176.03648759 C-63.18377462 189.8590525 -63.20123559 203.68156476 -63.22451296 217.50410932 C-63.2482068 231.68814136 -63.26068789 245.87214697 -63.26185489 260.05619913 C-63.26277265 268.02306489 -63.26855056 275.98986202 -63.2866745 283.95670891 C-63.30204882 290.73885174 -63.30721173 297.52090472 -63.2989364 304.30306166 C-63.29502064 307.76482627 -63.2960043 311.2264098 -63.30999374 314.68815231 C-63.32260749 318.43741645 -63.31689392 322.18621048 -63.30641174 325.93547058 C-63.31446815 327.03458407 -63.32252455 328.13369756 -63.33082509 329.26611751 C-63.32423525 330.26848275 -63.3176454 331.27084798 -63.31085587 332.30358791 C-63.31145295 333.16924293 -63.31205004 334.03489795 -63.31266522 334.92678493 C-62.85914976 337.75066193 -61.72365891 339.06348279 -59.93891907 341.25396729 C-59.42720032 343.83209229 -59.42720032 343.83209229 -59.25141907 346.50396729 C-59.18567688 347.39599854 -59.11993469 348.28802979 -59.05220032 349.20709229 C-58.9961261 350.22029541 -58.9961261 350.22029541 -58.93891907 351.25396729 C-57.94891907 351.25396729 -56.95891907 351.25396729 -55.93891907 351.25396729 C-55.50579407 352.70802979 -55.50579407 352.70802979 -55.06391907 354.19146729 C-54.29677225 357.36060932 -54.29677225 357.36060932 -51.93891907 358.25396729 C-51.44391907 359.73896729 -51.44391907 359.73896729 -50.93891907 361.25396729 C-49.07449097 363.06742994 -49.07449097 363.06742994 -46.87641907 364.81646729 C-45.52732388 365.91897917 -44.2050301 367.05707417 -42.93891907 368.25396729 C-42.93891907 368.91396729 -42.93891907 369.57396729 -42.93891907 370.25396729 C-42.27891907 370.58396729 -41.61891907 370.91396729 -40.93891907 371.25396729 C-42.25891907 370.92396729 -43.57891907 370.59396729 -44.93891907 370.25396729 C-44.93891907 369.59396729 -44.93891907 368.93396729 -44.93891907 368.25396729 C-46.25891907 367.59396729 -47.57891907 366.93396729 -48.93891907 366.25396729 C-48.93891907 365.59396729 -48.93891907 364.93396729 -48.93891907 364.25396729 C-49.50352844 364.05158447 -50.06813782 363.84920166 -50.64985657 363.64068604 C-53.80222965 361.73097197 -55.53819423 359.06116384 -57.56391907 356.06646729 C-57.95837219 355.514104 -58.35282532 354.96174072 -58.75923157 354.39263916 C-61.44378683 350.48824375 -62.77318297 346.89017462 -63.93891907 342.25396729 C-64.45239144 341.06839057 -64.45239144 341.06839057 -64.976237 339.85886282 C-65.99400028 337.10492452 -66.19046113 335.11186407 -66.19339466 332.18892002 C-66.20214295 330.68516075 -66.20214295 330.68516075 -66.21106797 329.15102249 C-66.20728865 328.05686821 -66.20350933 326.96271392 -66.19961548 325.83540344 C-66.20344103 324.66746874 -66.20726657 323.49953403 -66.21120805 322.29620737 C-66.21974157 319.05819074 -66.21930428 315.82031892 -66.21502745 312.5822984 C-66.21256166 309.08870251 -66.22157255 305.59513336 -66.22906494 302.10154724 C-66.24181788 295.25883175 -66.24360491 288.4161555 -66.24126468 281.57343013 C-66.23948209 276.01200172 -66.24122989 270.45058523 -66.24548912 264.88915825 C-66.24608431 264.09781472 -66.2466795 263.30647119 -66.24729272 262.49114756 C-66.24850447 260.88356761 -66.2497186 259.27598767 -66.2509351 257.66840773 C-66.26181285 242.59074759 -66.25964699 227.51310981 -66.25355025 212.4354484 C-66.24838041 198.64022402 -66.25963788 184.84507024 -66.27864847 171.04985983 C-66.2980174 156.88609044 -66.30628457 142.72235447 -66.30252522 128.55857176 C-66.3006118 120.60620929 -66.30311449 112.65390692 -66.31723976 104.70155525 C-66.32914246 97.93195466 -66.33057094 91.16245117 -66.31844959 84.39284927 C-66.31255316 80.9389286 -66.3114824 77.48518563 -66.323452 74.0312767 C-66.33386168 70.28719005 -66.3258647 66.54358382 -66.31314087 62.79951477 C-66.32051515 61.70759121 -66.32788944 60.61566764 -66.33548719 59.49065548 C-66.29568448 53.93927632 -65.98264595 50.08515208 -62.93891907 45.25396729 C-62.44657133 43.80676334 -61.98459616 42.34860545 -61.56391907 40.87896729 C-59.43167131 34.24778839 -55.6096709 28.40790034 -50.93891907 23.25396729 C-50.27891907 23.25396729 -49.61891907 23.25396729 -48.93891907 23.25396729 C-48.83579407 22.61459229 -48.73266907 21.97521729 -48.62641907 21.31646729 C-48.39954407 20.63584229 -48.17266907 19.95521729 -47.93891907 19.25396729 C-46.94891907 18.92396729 -45.95891907 18.59396729 -44.93891907 18.25396729 C-44.60891907 17.26396729 -44.27891907 16.27396729 -43.93891907 15.25396729 C-42.94891907 15.25396729 -41.95891907 15.25396729 -40.93891907 15.25396729 C-40.93891907 14.59396729 -40.93891907 13.93396729 -40.93891907 13.25396729 C-27.56932739 5.34863288 -15.84551634 -0.08019381 0 0 Z " fill="#0B0B1A" transform="translate(96.93891906738281,44.74603271484375)"/>
<path d="M0 0 C0.33 0 0.66 0 1 0 C1.01981934 0.79583496 1.03963867 1.59166992 1.06005859 2.41162109 C1.15613858 6.06637638 1.26547824 9.7206238 1.375 13.375 C1.4059375 14.62667969 1.436875 15.87835938 1.46875 17.16796875 C1.50742187 18.39902344 1.54609375 19.63007813 1.5859375 20.8984375 C1.63306885 22.57945557 1.63306885 22.57945557 1.68115234 24.29443359 C1.93221577 27.21222887 2.3516355 29.76731327 2.98152161 32.60543823 C4.02945612 37.757459 4.4316354 42.77197698 4.61450195 48.01855469 C4.65202985 48.96194073 4.68955774 49.90532677 4.72822285 50.87730026 C5.14958876 62.48281802 5.1642249 74.09140548 5.16796875 85.703125 C5.17119133 88.08827737 5.17455611 90.47342956 5.17805481 92.85858154 C5.18398045 97.80318665 5.18590087 102.74777442 5.18530273 107.69238281 C5.18519989 114.03871709 5.19900539 120.38494253 5.21607494 126.73125076 C5.22714817 131.63125121 5.22922362 136.53122458 5.22869301 141.43123627 C5.22987428 143.77410009 5.23430429 146.11696458 5.24202538 148.45981598 C5.25175754 151.70929453 5.24897747 154.9585258 5.24291992 158.20800781 C5.24853943 159.17613403 5.25415894 160.14426025 5.25994873 161.14172363 C5.25575424 162.02140808 5.25155975 162.90109253 5.24723816 163.80743408 C5.24778293 164.57344563 5.24832769 165.33945717 5.24888897 166.12868118 C5 168 5 168 3 170 C2.24663882 171.92580991 2.24663882 171.92580991 1.625 174.125 C0.20057813 178.57092281 -1.31967563 183.13717958 -4 187 C-4.99 187.33 -5.98 187.66 -7 188 C-7.33 189.65 -7.66 191.3 -8 193 C-8.99 193.33 -9.98 193.66 -11 194 C-11.165 194.66 -11.33 195.32 -11.5 196 C-11.665 196.66 -11.83 197.32 -12 198 C-12.99 198.33 -13.98 198.66 -15 199 C-15.33 199.99 -15.66 200.98 -16 202 C-17.70703125 203.7890625 -17.70703125 203.7890625 -19.8125 205.625 C-20.84310547 206.54152344 -20.84310547 206.54152344 -21.89453125 207.4765625 C-23.99520438 208.99653007 -25.46771872 209.57890154 -28 210 C-23.25 205.125 -23.25 205.125 -21 204 C-20.67 203.01 -20.34 202.02 -20 201 C-19.01 200.67 -18.02 200.34 -17 200 C-13.97747351 197.4219627 -12.9129942 195.78240456 -12 192 C-11.01 191.67 -10.02 191.34 -9 191 C-9.22171875 190.484375 -9.4434375 189.96875 -9.671875 189.4375 C-10.15199431 185.87089943 -8.6775123 183.18898389 -7.25 180 C-1.9789967 168.15303627 -0.55257286 156.8226397 -0.56762695 143.95019531 C-0.55859067 142.37208295 -0.54825893 140.79397756 -0.53674316 139.21588135 C-0.50936593 134.96877451 -0.49991512 130.72180153 -0.49388909 126.47461796 C-0.48445478 122.02231186 -0.45824763 117.5701038 -0.43388367 113.11785889 C-0.39035329 104.70344431 -0.36172389 96.28904891 -0.33856028 87.8745563 C-0.31143611 78.28794648 -0.26752928 68.70143594 -0.22227156 59.11489725 C-0.12961829 39.40998505 -0.05784947 19.70504312 0 0 Z " fill="#11121A" transform="translate(374,211)"/>
<path d="M0 0 C0.66 0.66 1.32 1.32 2 2 C1.51285711 2.58921454 1.02571423 3.17842909 0.52380943 3.78549862 C-1.76198607 8.60742231 -1.41316191 13.15903107 -1.38095093 18.43202209 C-1.3856309 19.60136793 -1.39031087 20.77071377 -1.39513266 21.97549433 C-1.40502847 25.21744032 -1.40146675 28.45904939 -1.39217401 31.70098698 C-1.38538907 35.19864072 -1.39586192 38.69624876 -1.40411377 42.19389343 C-1.41745884 49.04398071 -1.41457006 55.89396943 -1.40587585 62.74406058 C-1.3991033 68.31027732 -1.39818072 73.87646641 -1.4014473 79.44268608 C-1.401907 80.23460705 -1.40236669 81.02652803 -1.40284032 81.84244661 C-1.40379949 83.45115802 -1.40477213 85.05986943 -1.4057581 86.66858082 C-1.41431411 101.7557324 -1.40447425 116.84282931 -1.388357 131.92997193 C-1.37495102 144.88018118 -1.37728379 157.83030978 -1.39111328 170.78051758 C-1.40716089 185.81488274 -1.41349286 200.84919999 -1.40427649 215.88357252 C-1.40332083 217.48609157 -1.40237772 219.08861062 -1.4014473 220.69112968 C-1.40098447 221.47962743 -1.40052164 222.26812518 -1.40004479 223.0805168 C-1.39745263 228.64164694 -1.4018307 234.20274672 -1.40888596 239.76387215 C-1.41729195 246.53866045 -1.41503975 253.31334444 -1.39904372 260.08812077 C-1.39114919 263.54583943 -1.38808939 267.00338408 -1.39799118 270.46110153 C-1.40614575 274.2058971 -1.39595829 277.95019781 -1.38095093 281.69496155 C-1.38764309 282.7927108 -1.39433526 283.89046004 -1.40123022 285.02147442 C-1.39340697 286.02260626 -1.38558373 287.02373809 -1.37752342 288.05520725 C-1.37703637 288.91977812 -1.37654931 289.78434899 -1.37604749 290.67511898 C-0.91977697 293.49597195 0.21720154 294.81097905 2 297 C2.51171875 299.578125 2.51171875 299.578125 2.6875 302.25 C2.75324219 303.14203125 2.81898437 304.0340625 2.88671875 304.953125 C2.94279297 305.96632813 2.94279297 305.96632813 3 307 C3.99 307 4.98 307 6 307 C6.433125 308.4540625 6.433125 308.4540625 6.875 309.9375 C7.64214682 313.10664203 7.64214682 313.10664203 10 314 C10.495 315.485 10.495 315.485 11 317 C12.8644281 318.81346266 12.8644281 318.81346266 15.0625 320.5625 C16.41159519 321.66501188 17.73388897 322.80310688 19 324 C19 324.66 19 325.32 19 326 C19.66 326.33 20.32 326.66 21 327 C19.68 326.67 18.36 326.34 17 326 C17 325.34 17 324.68 17 324 C15.68 323.34 14.36 322.68 13 322 C13 321.34 13 320.68 13 320 C12.43539062 319.79761719 11.87078125 319.59523438 11.2890625 319.38671875 C8.13668942 317.47700468 6.40072484 314.80719655 4.375 311.8125 C3.98054688 311.26013672 3.58609375 310.70777344 3.1796875 310.13867188 C0.49513224 306.23427647 -0.8342639 302.63620734 -2 298 C-2.51347238 296.81442329 -2.51347238 296.81442329 -3.03731793 295.60489553 C-4.05508121 292.85095723 -4.25154206 290.85789678 -4.25447559 287.93495274 C-4.26322388 286.43119346 -4.26322388 286.43119346 -4.27214891 284.89705521 C-4.26836958 283.80290092 -4.26459026 282.70874663 -4.26069641 281.58143616 C-4.26452196 280.41350145 -4.26834751 279.24556675 -4.27228898 278.04224008 C-4.2808225 274.80422346 -4.28038521 271.56635163 -4.27610838 268.32833111 C-4.27364259 264.83473522 -4.28265348 261.34116607 -4.29014587 257.84757996 C-4.30289881 251.00486447 -4.30468584 244.16218821 -4.30234561 237.31946284 C-4.30056302 231.75803444 -4.30231082 226.19661795 -4.30657005 220.63519096 C-4.30716524 219.84384744 -4.30776043 219.05250391 -4.30837366 218.23718027 C-4.3095854 216.62960033 -4.31079953 215.02202039 -4.31201603 213.41444045 C-4.32289378 198.3367803 -4.32072792 183.25914252 -4.31463119 168.18148112 C-4.30946135 154.38625674 -4.32071882 140.59110296 -4.33972941 126.79589254 C-4.35909833 112.63212316 -4.3673655 98.46838719 -4.36360615 84.30460447 C-4.36169273 76.35224201 -4.36419542 68.39993964 -4.37832069 60.44758797 C-4.3902234 53.67798738 -4.39165188 46.90848389 -4.37953053 40.13888199 C-4.37363409 36.68496132 -4.37256334 33.23121834 -4.38453293 29.77730942 C-4.39494261 26.03322276 -4.38694563 22.28961653 -4.3742218 18.54554749 C-4.38159609 17.45362392 -4.38897037 16.36170035 -4.39656812 15.2366882 C-4.35578204 9.54815534 -4.31123391 4.31123391 0 0 Z " fill="#000007" transform="translate(35,89)"/>
<path d="M0 0 C0.33 0 0.66 0 1 0 C0.92928571 0.66026552 0.85857142 1.32053104 0.78571427 2.0008046 C0.09934584 8.86603485 -0.14214865 15.63637158 -0.12698364 22.53266907 C-0.12854363 23.64039348 -0.13010362 24.7481179 -0.13171089 25.88940972 C-0.13567494 29.57252723 -0.13254918 33.25560295 -0.12939453 36.9387207 C-0.13075057 39.59067402 -0.13249568 42.24262454 -0.13470459 44.89457703 C-0.1391356 51.33139568 -0.13819794 57.76820262 -0.13529195 64.20502172 C-0.13302839 69.43640225 -0.13272952 74.66777951 -0.13381577 79.89916039 C-0.133969 80.64528519 -0.13412223 81.39141 -0.13428011 82.16014465 C-0.13459985 83.67608339 -0.13492406 85.19202213 -0.1352527 86.70796087 C-0.13809941 100.89862201 -0.13483264 115.08927667 -0.12945233 129.27993675 C-0.12498043 141.45168307 -0.12576498 153.62341986 -0.13037109 165.79516602 C-0.13572321 179.94476055 -0.13782963 194.09434942 -0.13475883 208.24394482 C-0.13444029 209.7526027 -0.13412592 211.26126057 -0.13381577 212.76991844 C-0.13366149 213.51213908 -0.13350721 214.25435971 -0.13334826 215.01907188 C-0.13248537 220.24569543 -0.133941 225.47231538 -0.13629532 230.69893837 C-0.13910037 237.06579034 -0.13833993 243.43262998 -0.13301457 249.79948054 C-0.13038782 253.04681068 -0.12989419 256.29411603 -0.13266373 259.54144669 C-0.13538966 263.06173478 -0.13197636 266.58196477 -0.12698364 270.10224915 C-0.12921436 271.12782482 -0.13144509 272.15340049 -0.13374341 273.21005422 C-0.1207268 277.93042458 0.06088882 282.35336055 1 287 C1.11196073 289.67810075 1.04625299 292.31732686 1 295 C-2.85103703 291.69230176 -2.85103703 291.69230176 -3.50024599 288.67511898 C-3.50035333 287.81054811 -3.50046066 286.94597724 -3.50057125 286.05520725 C-3.51038554 285.05407542 -3.52019983 284.05294358 -3.53031152 283.02147442 C-3.52070652 281.92372517 -3.51110151 280.82597592 -3.50120544 279.69496155 C-3.50673984 278.5271757 -3.51227424 277.35938986 -3.51797634 276.15621656 C-3.52924723 272.91384449 -3.5225363 269.6720798 -3.50823963 266.42973769 C-3.49714688 262.93340435 -3.50906683 259.43713992 -3.51808167 255.94081116 C-3.53202824 249.09088694 -3.52444737 242.24114684 -3.50940608 235.39123137 C-3.49256016 227.41636695 -3.4957545 219.44154858 -3.49950016 211.46667188 C-3.50538144 197.23791653 -3.49119724 183.00924962 -3.46655273 168.78051758 C-3.44263569 154.97026249 -3.43554637 141.16012559 -3.44604492 127.34985352 C-3.45745242 112.31694599 -3.45938593 97.28409317 -3.44494683 82.25118631 C-3.44342097 80.64835291 -3.44190061 79.0455195 -3.44038582 77.44268608 C-3.439628 76.65403406 -3.43887019 75.86538203 -3.43808941 75.05283146 C-3.43334493 69.49268711 -3.43519922 63.93256716 -3.43945122 58.37242317 C-3.44437633 51.59653425 -3.43840066 44.82075712 -3.41855692 38.04489381 C-3.40868016 34.58706288 -3.4035838 31.12940223 -3.41144943 27.67156219 C-3.41738175 23.92486525 -3.40493563 20.17867345 -3.38768005 16.43202209 C-3.3936901 15.33650357 -3.39970014 14.24098504 -3.40589231 13.11226898 C-3.32811996 3.86301078 -3.32811996 3.86301078 0 0 Z " fill="#121C32" transform="translate(36,91)"/>
<path d="M0 0 C4.33795585 4.33795585 3.29237978 13.94946405 3.55200195 19.89355469 C3.59404157 20.84596416 3.63608118 21.79837364 3.67939472 22.77964401 C4.15096482 34.41838693 4.16421366 46.05654552 4.16796875 57.703125 C4.17119133 60.08827737 4.17455611 62.47342956 4.17805481 64.85858154 C4.18398045 69.80318665 4.18590087 74.74777442 4.18530273 79.69238281 C4.18519989 86.03871709 4.19900539 92.38494253 4.21607494 98.73125076 C4.22714817 103.63125121 4.22922362 108.53122458 4.22869301 113.43123627 C4.22987428 115.77410009 4.23430429 118.11696458 4.24202538 120.45981598 C4.25175754 123.70929453 4.24897747 126.9585258 4.24291992 130.20800781 C4.24853943 131.17613403 4.25415894 132.14426025 4.25994873 133.14172363 C4.253657 134.46125031 4.253657 134.46125031 4.24723816 135.80743408 C4.24778293 136.57344563 4.24832769 137.33945717 4.24888897 138.12868118 C4 140 4 140 2 142 C1.46894316 143.44024839 0.99550314 144.90230007 0.5625 146.375 C-0.50559902 149.75913006 -1.56818052 152.33657867 -4 155 C-4.35519851 150.73761788 -3.5352227 149.31529123 -1 146 C0.94929798 140.51193604 1.28160955 135.63911041 1.23046875 129.84765625 C1.23001053 128.98869247 1.22955231 128.1297287 1.2290802 127.24473572 C1.22607356 125.43698741 1.21823521 123.62924132 1.20581055 121.8215332 C1.18757822 119.07428668 1.18530108 116.32737883 1.18554688 113.58007812 C1.1806295 111.81510129 1.17480023 110.05012671 1.16796875 108.28515625 C1.16685593 107.47345474 1.1657431 106.66175323 1.16459656 105.82545471 C1.133948 102.08974119 0.97279529 98.49276306 0.42700195 94.79467773 C0.0114731 91.10195904 0.34984511 88.62034497 1 85 C1.15649869 81.38198101 1.14011935 77.76547726 1.1328125 74.14453125 C1.13376923 73.08828049 1.13472595 72.03202972 1.13571167 70.94377136 C1.13639129 68.70543356 1.13455219 66.46709377 1.13037109 64.22875977 C1.12508923 60.86925588 1.13028719 57.50988999 1.13671875 54.15039062 C1.13992664 42.78800852 0.94523813 31.48619825 0.22045898 20.14599609 C-0.18587757 13.43815353 -0.08337881 6.71662669 0 0 Z " fill="#000003" transform="translate(375,239)"/>
<path d="M0 0 C0.33 0 0.66 0 1 0 C4.26302374 8.91893156 4.14772496 17.37942807 4.1328125 26.78125 C4.13348734 28.12211118 4.13445886 29.46297224 4.13571167 30.80383301 C4.13718017 33.60442274 4.13506146 36.40498042 4.13037109 39.20556641 C4.12467432 42.77957969 4.12795788 46.35351785 4.13394356 49.92752838 C4.13757212 52.69346677 4.13640006 55.4593876 4.13381577 58.22532654 C4.13283255 60.17890472 4.13584792 62.1324836 4.13894653 64.08605957 C4.12379752 69.84423442 3.90502104 75.30342768 3 81 C2.94399938 83.49027251 2.93730425 85.98200504 2.97265625 88.47265625 C2.98529526 89.88085698 2.99765675 91.28906023 3.00976562 92.69726562 C3.03458913 94.88492959 3.06265156 97.07245776 3.09594727 99.26000977 C3.12629795 101.39340025 3.14395946 103.5266178 3.16015625 105.66015625 C3.17699463 106.92480713 3.19383301 108.18945801 3.21118164 109.49243164 C2.99953746 113.00768244 2.27300985 115.73224178 1 119 C0.67 119 0.34 119 0 119 C-0.02983701 112.72917816 -0.05003666 106.45838067 -0.0625 100.1875 C-0.06444366 99.24332214 -0.06638733 98.29914429 -0.06838989 97.32635498 C-0.08379372 86.57448177 -0.00349313 75.86449501 0.5625 65.125 C1.66053097 43.46124244 0.55202372 21.67027623 0 0 Z " fill="#000005" transform="translate(375,92)"/>
<path d="M0 0 C0.66 0.33 1.32 0.66 2 1 C-2.03072562 4.61337528 -6.0832999 8.092845 -10.4375 11.3125 C-20.79960825 19.31226233 -27.15882662 29.02446586 -32 41 C-32.99 40.34 -33.98 39.68 -35 39 C-34.55285048 34.34964504 -34.0655309 31.53715104 -31 28 C-30.525625 27.195625 -30.05125 26.39125 -29.5625 25.5625 C-27.89525907 22.82822487 -26.12353866 20.39754365 -24 18 C-23.34 18 -22.68 18 -22 18 C-21.896875 17.360625 -21.79375 16.72125 -21.6875 16.0625 C-21.3471875 15.0415625 -21.3471875 15.0415625 -21 14 C-20.01 13.67 -19.02 13.34 -18 13 C-17.67 12.01 -17.34 11.02 -17 10 C-16.01 10 -15.02 10 -14 10 C-14 9.34 -14 8.68 -14 8 C-11.7136988 6.63597957 -9.42178251 5.28365726 -7.125 3.9375 C-6.47402344 3.54755859 -5.82304688 3.15761719 -5.15234375 2.75585938 C-3.46934275 1.77555467 -1.73703801 0.88101568 0 0 Z " fill="#000003" transform="translate(70,50)"/>
<path d="M0 0 C8.72470501 2.0700091 16.99225353 7.36436684 24.22265625 12.52734375 C24.22265625 13.18734375 24.22265625 13.84734375 24.22265625 14.52734375 C25.54265625 15.18734375 26.86265625 15.84734375 28.22265625 16.52734375 C28.22265625 17.18734375 28.22265625 17.84734375 28.22265625 18.52734375 C29.54265625 19.18734375 30.86265625 19.84734375 32.22265625 20.52734375 C32.22265625 21.51734375 32.22265625 22.50734375 32.22265625 23.52734375 C33.54265625 24.18734375 34.86265625 24.84734375 36.22265625 25.52734375 C36.22265625 26.84734375 36.22265625 28.16734375 36.22265625 29.52734375 C37.54265625 30.18734375 38.86265625 30.84734375 40.22265625 31.52734375 C39.89265625 32.84734375 39.56265625 34.16734375 39.22265625 35.52734375 C38.89265625 34.53734375 38.56265625 33.54734375 38.22265625 32.52734375 C37.23265625 32.19734375 36.24265625 31.86734375 35.22265625 31.52734375 C35.22265625 30.80546875 35.22265625 30.08359375 35.22265625 29.33984375 C33.87800904 25.55802347 31.98146631 24.95305707 28.5859375 23.03515625 C25.90175275 21.32260201 23.77636088 19.34812038 21.47265625 17.15234375 C12.52483404 8.94220459 2.90415324 4.56076474 -8.77734375 1.52734375 C-5.38525629 -0.73404789 -3.92636761 -0.63420457 0 0 Z " fill="#0A0B12" transform="translate(330.77734375,47.47265625)"/>
<path d="M0 0 C2.68655284 3.26224274 4.2692173 6.65766241 6 10.5 C11.24246956 21.45132028 19.38040954 30.02156389 30 36 C25.41201223 37.53271273 23.22055258 36.02911182 19 34 C19 33.01 19 32.02 19 31 C18.34 31 17.68 31 17 31 C15.59765625 29.5390625 15.59765625 29.5390625 14.0625 27.625 C12.08013383 25.16098476 10.69300345 23.79533563 8 22 C8 21.01 8 20.02 8 19 C7.01 18.67 6.02 18.34 5 18 C4.67 16.02 4.34 14.04 4 12 C3.01 12 2.02 12 1 12 C0.03929566 9.11788698 -0.10581883 7.30149956 -0.0625 4.3125 C-0.05347656 3.50425781 -0.04445312 2.69601562 -0.03515625 1.86328125 C-0.02355469 1.24839844 -0.01195312 0.63351562 0 0 Z " fill="#131A2B" transform="translate(37,384)"/>
<path d="M0 0 C1.0625 1.8125 1.0625 1.8125 2 4 C1.67 4.99 1.34 5.98 1 7 C0.01 7 -0.98 7 -2 7 C-2.33 8.65 -2.66 10.3 -3 12 C-3.99 12.33 -4.98 12.66 -6 13 C-6.33 13.99 -6.66 14.98 -7 16 C-7.99 16 -8.98 16 -10 16 C-10.09796875 16.60585938 -10.1959375 17.21171875 -10.296875 17.8359375 C-11.50937112 21.56773112 -14.74885114 23.06168292 -18 25 C-20.8125 26.25 -20.8125 26.25 -23 27 C-23.66 27.33 -24.32 27.66 -25 28 C-25.99 27.34 -26.98 26.68 -28 26 C-27.22076172 25.63648438 -27.22076172 25.63648438 -26.42578125 25.265625 C-22.1654485 23.2181453 -18.66639032 21.01938027 -15 18 C-14.34 18 -13.68 18 -13 18 C-13 17.34 -13 16.68 -13 16 C-11.84435978 14.84435978 -10.68449741 13.69263855 -9.50390625 12.5625 C-5.86474673 8.78155505 -2.90406672 4.35610009 0 0 Z " fill="#131C30" transform="translate(364,396)"/>
<path d="M0 0 C5.74203068 1.62734971 11.34404767 3.47806021 16.9375 5.5625 C22.27199192 7.51186575 27.36307978 8.79567921 32.98828125 9.54296875 C33.98408203 9.76919922 33.98408203 9.76919922 35 10 C35.495 10.99 35.495 10.99 36 12 C30.0793354 12.23283512 25.26747514 11.56737694 19.625 9.8125 C18.88765625 9.58908936 18.1503125 9.36567871 17.390625 9.13549805 C11.68210489 7.34595211 6.02280418 5.31365554 1 2 C0.67 1.34 0.34 0.68 0 0 Z " fill="#090C13" transform="translate(60,419)"/>
<path d="M0 0 C0.66 0.33 1.32 0.66 2 1 C-10.1741573 12 -10.1741573 12 -16 12 C-16 12.66 -16 13.32 -16 14 C-16.639375 14.268125 -17.27875 14.53625 -17.9375 14.8125 C-20.33131686 15.88667752 -20.33131686 15.88667752 -21 19 C-23.0625 19.6875 -23.0625 19.6875 -25 20 C-24.67 19.34 -24.34 18.68 -24 18 C-23.34 18 -22.68 18 -22 18 C-21.896875 17.360625 -21.79375 16.72125 -21.6875 16.0625 C-21.460625 15.381875 -21.23375 14.70125 -21 14 C-20.01 13.67 -19.02 13.34 -18 13 C-17.67 12.01 -17.34 11.02 -17 10 C-16.01 10 -15.02 10 -14 10 C-14 9.34 -14 8.68 -14 8 C-11.7136988 6.63597957 -9.42178251 5.28365726 -7.125 3.9375 C-6.47402344 3.54755859 -5.82304688 3.15761719 -5.15234375 2.75585938 C-3.46934275 1.77555467 -1.73703801 0.88101568 0 0 Z " fill="#0A0E19" transform="translate(70,50)"/>
<path d="M0 0 C4.875 1.875 4.875 1.875 6 3 C6.04063832 4.66617115 6.042721 6.33388095 6 8 C7.32 8.33 8.64 8.66 10 9 C10.99 12.63 11.98 16.26 13 20 C12.01 20.66 11.02 21.32 10 22 C9.34 19.03 8.68 16.06 8 13 C7.34 13 6.68 13 6 13 C5.18501438 11.3970947 4.37310073 9.79262722 3.5625 8.1875 C3.11003906 7.29417969 2.65757812 6.40085937 2.19140625 5.48046875 C1 3 1 3 0 0 Z " fill="#151720" transform="translate(360,71)"/>
<path d="M0 0 C2.47938989 0.52578502 4.71533274 1.35118136 7.0078125 2.42578125 C7.0078125 3.08578125 7.0078125 3.74578125 7.0078125 4.42578125 C7.7503125 4.67328125 8.4928125 4.92078125 9.2578125 5.17578125 C12.20905312 6.51725426 13.85596224 8.03483651 16.0078125 10.42578125 C12.35022435 10.42578125 10.65751916 9.33455496 7.4453125 7.61328125 C2.08314921 4.85055887 -3.15276934 2.89855486 -8.9921875 1.42578125 C-5.52232758 -0.8874587 -4.00930046 -0.61397037 0 0 Z " fill="#0E1523" transform="translate(330.9921875,47.57421875)"/>
<path d="M0 0 C2.89168064 2.88598835 4.27251682 4.93926601 4.390625 8.98828125 C4.36428842 10.430209 4.3169454 11.8718864 4.25 13.3125 C4.23195313 14.05306641 4.21390625 14.79363281 4.1953125 15.55664062 C4.14847337 17.3716571 4.07673789 19.18600166 4 21 C3.34 21 2.68 21 2 21 C1.66259915 19.08404518 1.33023588 17.16720278 1 15.25 C0.814375 14.18265625 0.62875 13.1153125 0.4375 12.015625 C-0.14318809 8.01302498 0 4.03636002 0 0 Z " fill="#14161E" transform="translate(371,83)"/>
<path d="M0 0 C0.33 0 0.66 0 1 0 C1.22630724 4.39510126 1.42790777 8.7909994 1.625 13.1875 C1.68945312 14.43337891 1.75390625 15.67925781 1.8203125 16.96289062 C1.871875 18.16494141 1.9234375 19.36699219 1.9765625 20.60546875 C2.02893066 21.71043701 2.08129883 22.81540527 2.13525391 23.95385742 C1.99623333 27.08483171 1.34010352 29.18944159 0 32 C-0.33 32 -0.66 32 -1 32 C-1.10947633 21.27132003 -0.96288008 10.6948466 0 0 Z " fill="#1A1A1E" transform="translate(375,255)"/>
<path d="M0 0 C0.99 0.33 1.98 0.66 3 1 C2.50371094 1.44988281 2.00742187 1.89976563 1.49609375 2.36328125 C-3.49092268 7.08533286 -7.13602001 11.97975108 -10.65234375 17.875 C-11.09707031 18.57625 -11.54179688 19.2775 -12 20 C-12.33 20 -12.66 20 -13 20 C-12.67 17.69 -12.34 15.38 -12 13 C-11.34 13 -10.68 13 -10 13 C-9.67 11.35 -9.34 9.7 -9 8 C-7.68 7.67 -6.36 7.34 -5 7 C-4.67 5.68 -4.34 4.36 -4 3 C-2.68 2.67 -1.36 2.34 0 2 C0 1.34 0 0.68 0 0 Z " fill="#121928" transform="translate(54,62)"/>
<path d="M0 0 C4.15448646 0.53677436 6.45962335 1.80149207 9.6875 4.4375 C10.45449219 5.05496094 11.22148438 5.67242187 12.01171875 6.30859375 C14 8 14 8 16 10 C12.1936543 9.32829194 8.64793184 8.27253436 5 7 C5 6.01 5 5.02 5 4 C4.34 4 3.68 4 3 4 C1.375 2 1.375 2 0 0 Z " fill="#0F1424" transform="translate(51,411)"/>
<path d="M0 0 C2.375 0.625 2.375 0.625 5 2 C6.74051798 5.72968139 7.24058415 8.91006939 7 13 C2.9455332 9.71781259 1.60029003 4.80087009 0 0 Z " fill="#121C35" transform="translate(360,71)"/>
<path d="M0 0 C2.0625 0.4375 2.0625 0.4375 4 1 C-2.56342244 4.65875889 -8.54928441 6.93787671 -16 8 C-15.67 7.34 -15.34 6.68 -15 6 C-12.95756472 5.36614078 -10.90867481 4.98173496 -8.8125 4.5625 C-8.214375 4.376875 -7.61625 4.19125 -7 4 C-6.67 3.34 -6.34 2.68 -6 2 C-4.34178227 1.62690101 -2.67422986 1.29299023 -1 1 C-0.67 0.67 -0.34 0.34 0 0 Z " fill="#020205" transform="translate(342,421)"/>
<path d="M0 0 C0.33 0 0.66 0 1 0 C1 4.62 1 9.24 1 14 C-2 11 -2 11 -2.109375 8.80859375 C-1.99078125 8.02613281 -1.8721875 7.24367188 -1.75 6.4375 C-1.64171875 5.65246094 -1.5334375 4.86742187 -1.421875 4.05859375 C-1 2 -1 2 0 0 Z " fill="#060607" transform="translate(407,313)"/>
<path d="M0 0 C-1 3 -1 3 -2.78515625 3.94921875 C-8.07962247 5.6656066 -12.43640508 6.30346881 -18 6 C-18 5.67 -18 5.34 -18 5 C-17.01257813 4.72285156 -16.02515625 4.44570313 -15.0078125 4.16015625 C-13.71351203 3.79437568 -12.41924281 3.42848451 -11.125 3.0625 C-10.47402344 2.88009766 -9.82304687 2.69769531 -9.15234375 2.50976562 C-0.29971591 0 -0.29971591 0 0 0 Z " fill="#141D30" transform="translate(336,423)"/>
<path d="M0 0 C2.69082872 0.17635452 5.32851446 0.61835921 8 1 C4.98509443 3.00993705 2.7850073 3.72623341 -0.6875 4.625 C-1.68136719 4.88539062 -2.67523438 5.14578125 -3.69921875 5.4140625 C-4.45847656 5.60742188 -5.21773438 5.80078125 -6 6 C-4 4 -2 2 0 0 Z " fill="#0E1526" transform="translate(74,48)"/>
<path d="M0 0 C0.66 0.33 1.32 0.66 2 1 C0.71451591 2.33929505 -0.57858155 3.67128643 -1.875 5 C-2.59429687 5.7425 -3.31359375 6.485 -4.0546875 7.25 C-6 9 -6 9 -8 9 C-6.4169423 4.7257442 -3.49431596 2.73468206 0 0 Z " fill="#CBDCF9" transform="translate(88,299)"/>
<path d="M0 0 C0.99 0.33 1.98 0.66 3 1 C-0.75 4.875 -0.75 4.875 -3 6 C-3.33 6.99 -3.66 7.98 -4 9 C-6.0625 9.6875 -6.0625 9.6875 -8 10 C-7.67 9.34 -7.34 8.68 -7 8 C-6.34 8 -5.68 8 -5 8 C-4.896875 7.360625 -4.79375 6.72125 -4.6875 6.0625 C-4.460625 5.381875 -4.23375 4.70125 -4 4 C-3.01 3.67 -2.02 3.34 -1 3 C-0.67 2.01 -0.34 1.02 0 0 Z " fill="#000002" transform="translate(53,60)"/>
<path d="M0 0 C1.0625 1.8125 1.0625 1.8125 2 4 C1.67 4.99 1.34 5.98 1 7 C-0.65 7.33 -2.3 7.66 -4 8 C-2.87548273 5.0280615 -1.77706209 2.66559313 0 0 Z " fill="#112346" transform="translate(364,396)"/>
<path d="M0 0 C3.93673644 1.31224548 6.22719294 2.91910327 9 6 C4.75354935 6 2.61475228 4.18249194 -1 2 C-0.67 1.34 -0.34 0.68 0 0 Z " fill="#131B30" transform="translate(338,52)"/>
<path d="M0 0 C0.66 0.33 1.32 0.66 2 1 C1.04882866 2.1725131 0.08882991 3.33787015 -0.875 4.5 C-1.40867188 5.1496875 -1.94234375 5.799375 -2.4921875 6.46875 C-2.98976562 6.9740625 -3.48734375 7.479375 -4 8 C-4.66 8 -5.32 8 -6 8 C-4.55746343 4.63408134 -2.66735273 2.48952921 0 0 Z " fill="#C3D7F8" transform="translate(152,98)"/>
<path d="M0 0 C0.66 0 1.32 0 2 0 C1.71848913 1.31471568 1.42446661 2.62675767 1.125 3.9375 C0.96257813 4.66839844 0.80015625 5.39929688 0.6328125 6.15234375 C0 8 0 8 -2 9 C-2.25 3.375 -2.25 3.375 0 0 Z " fill="#121D34" transform="translate(39,82)"/>
<path d="M0 0 C2.50298434 2.93828597 3.46930939 5.17902761 4 9 C2.68 8.67 1.36 8.34 0 8 C0 5.36 0 2.72 0 0 Z " fill="#13223D" transform="translate(37,384)"/>
<path d="M0 0 C2.0625 2.25 2.0625 2.25 4 5 C3.75 7.3125 3.75 7.3125 3 9 C0.90250005 6.64031256 0.03094296 5.45383006 -0.1875 2.25 C-0.125625 1.5075 -0.06375 0.765 0 0 Z " fill="#000001" transform="translate(371,83)"/>
<path d="M0 0 C0.33 1.32 0.66 2.64 1 4 C-0.98 4.99 -0.98 4.99 -3 6 C-2.625 3.5625 -2.625 3.5625 -2 1 C-1.34 0.67 -0.68 0.34 0 0 Z " fill="#131826" transform="translate(361,403)"/>
</svg>
